# xmcd
#
# Track frame offsets: 
#        150
#        18677
#        31145
#        49232
#        65995
#        82137
#        102042
#        119250
#        134585
#        148052
#
# Disc length: 2218 seconds
#
# Revision: 2
# Processed by: cddbd v1.5.2PL0 Copyright (c) Steve Scherf et al.
# Submitted via: ExactAudioCopyFreeDBPlugin 1.0
#
DISCID=9608a80a
DTITLE=Tom Principato - Smokin'!
DYEAR=1985
DGENRE=Blues
TTITLE0=Slipped, Tripped, Fell In Love
TTITLE1=My Baby Worships Me
TTITLE2=Blue Mood
TTITLE3=Lipstick, Powder and Paint
TTITLE4=Fish Fry
TTITLE5=Here I Come (Back For A Taste Of Your Love)
TTITLE6=Talkin' Trash
TTITLE7=I'm On Fire
TTITLE8=Well Oh Well
TTITLE9=Hard Livin'
EXTD=
EXTT0=
EXTT1=
EXTT2=
EXTT3=
EXTT4=
EXTT5=
EXTT6=
EXTT7=
EXTT8=
EXTT9=
PLAYORDER=
